<?xml version="1.0" encoding="UTF-8" standalone="no"?>
<!-- Created with Inkscape (http://www.inkscape.org/) -->

<svg
   xmlns:dc="http://purl.org/dc/elements/1.1/"
   xmlns:cc="http://creativecommons.org/ns#"
   xmlns:rdf="http://www.w3.org/1999/02/22-rdf-syntax-ns#"
   xmlns:svg="http://www.w3.org/2000/svg"
   xmlns="http://www.w3.org/2000/svg"
   xmlns:sodipodi="http://sodipodi.sourceforge.net/DTD/sodipodi-0.dtd"
   xmlns:inkscape="http://www.inkscape.org/namespaces/inkscape"
   width="16"
   height="16"
   viewBox="0 0 15.999998 16"
   id="svg2"
   version="1.1"
   inkscape:version="0.91 r13725"
   sodipodi:docname="icon.svg"
   inkscape:export-filename="C:\Users\annarose\projects\budgieBlog\icon.png"
   inkscape:export-xdpi="90"
   inkscape:export-ydpi="90">
  <defs
     id="defs4" />
  <sodipodi:namedview
     id="base"
     pagecolor="#ffffff"
     bordercolor="#666666"
     borderopacity="1.0"
     inkscape:pageopacity="0.0"
     inkscape:pageshadow="2"
     inkscape:zoom="1.1269531"
     inkscape:cx="7.0017331"
     inkscape:cy="8"
     inkscape:document-units="px"
     inkscape:current-layer="layer1"
     showgrid="false"
     inkscape:window-width="1304"
     inkscape:window-height="746"
     inkscape:window-x="-8"
     inkscape:window-y="-8"
     inkscape:window-maximized="1"
     inkscape:snap-global="false"
     fit-margin-top="0"
     fit-margin-left="0"
     fit-margin-right="0"
     fit-margin-bottom="0"
     units="px" />
  <metadata
     id="metadata7">
    <rdf:RDF>
      <cc:Work
         rdf:about="">
        <dc:format>image/svg+xml</dc:format>
        <dc:type
           rdf:resource="http://purl.org/dc/dcmitype/StillImage" />
        <dc:title></dc:title>
      </cc:Work>
    </rdf:RDF>
  </metadata>
  <g
     inkscape:label="Layer 1"
     inkscape:groupmode="layer"
     id="layer1"
     transform="translate(-28.149985,-1019.0007)">
    <path
       style="color:#000000;font-style:normal;font-variant:normal;font-weight:normal;font-stretch:normal;font-size:medium;line-height:normal;font-family:sans-serif;text-indent:0;text-align:start;text-decoration:none;text-decoration-line:none;text-decoration-style:solid;text-decoration-color:#000000;letter-spacing:normal;word-spacing:normal;text-transform:none;direction:ltr;block-progression:tb;writing-mode:lr-tb;baseline-shift:baseline;text-anchor:start;white-space:normal;clip-rule:nonzero;display:inline;overflow:visible;visibility:visible;opacity:1;isolation:auto;mix-blend-mode:normal;color-interpolation:sRGB;color-interpolation-filters:linearRGB;solid-color:#000000;solid-opacity:1;fill:#1a1a1a;fill-opacity:1;fill-rule:nonzero;stroke:none;stroke-width:0.97399998;stroke-linecap:butt;stroke-linejoin:miter;stroke-miterlimit:4;stroke-dasharray:none;stroke-dashoffset:0;stroke-opacity:1;color-rendering:auto;image-rendering:auto;shape-rendering:auto;text-rendering:auto;enable-background:accumulate"
       d="m 35.955596,1020.0343 c -0.01234,0.778 -0.257586,1.5631 -0.775405,2.0815 -0.920136,0.9211 -1.280371,1.7444 -1.122666,2.8892 -1.751723,-0.5307 -3.828015,-0.1971 -5.278977,0.8982 l -0.555401,0.4345 0.703148,0.045 c 0.711253,0.022 1.406028,0.2711 1.747077,0.8089 0.579997,0.9145 1.235002,1.4616 2.049041,1.7061 -1.782672,2.2284 -1.032014,5.1819 -1.032014,5.1819 l 0.130488,0.4762 0.328932,-0.3679 c 0.456509,-0.5201 0.984482,-1.0948 1.649958,-1.2774 1.01154,-0.2774 1.960805,-0.7166 2.427575,-1.4957 1.073727,1.545 2.535458,2.1629 4.29459,2.6617 l 0.620102,0.1386 -0.331075,-0.5413 c -0.41197,-0.6645 -0.71216,-1.3654 -0.55131,-2.0702 0.233391,-1.0235 0.20563,-1.8152 -0.254518,-2.6346 1.632038,-0.3907 3.202215,-1.4649 3.876212,-3.0078 l 0.190883,-0.4552 -0.486372,0.087 c -0.862612,0.1598 -1.861122,-0.053 -2.517685,-0.4611 -0.937896,-0.5809 -1.692079,-0.55 -2.623403,-0.2389 0.141087,-1.8806 -0.773437,-3.6774 -2.024404,-5.0377 l -0.448618,-0.479 z m 0.379375,1.9404 c 0.971671,0.7905 1.89796,2.9909 1.243508,4.2584 1.195881,-0.5384 1.597693,-0.7747 2.328754,-0.1915 0.607808,0.4843 1.550487,0.4922 2.189712,0.4337 -0.431613,1.0061 -2.141792,2.4 -3.392798,2.0878 0.656893,0.4532 0.729792,1.7623 0.499279,2.4318 -0.208538,0.6056 -0.120782,1.205 0.163335,1.7248 -1.396776,-0.3655 -2.489496,-1.0716 -3.111431,-2.9481 -0.259311,1.0632 -1.361398,1.8675 -2.206134,2.0492 -0.534749,0.1149 -1.031096,0.2898 -1.306626,0.79 -0.105145,-1.4753 -0.06216,-2.599 1.245148,-4.0016 -0.937382,-0.1754 -1.761202,-0.7605 -2.094902,-1.3901 -0.258669,-0.4885 -0.77504,-0.7122 -1.20666,-0.8336 1.141107,-0.7784 3.372004,-1.123 4.255064,-0.1643 -0.35508,-0.9908 0.0066,-2.164 0.659662,-2.7846 0.40834,-0.3879 0.623781,-0.9561 0.734089,-1.4619 z"
       id="path3336"
       inkscape:connector-curvature="0"
       sodipodi:nodetypes="csccccsccccsccccsccccsccccccsccsccsccsccsc" />
  </g>
</svg>
